<svg xmlns="http://www.w3.org/2000/svg" version="1.1" xmlns:xlink="http://www.w3.org/1999/xlink" xmlns:svgjs="http://svgjs.dev/svgjs" width="2000" height="2250" viewBox="0 0 2000 2250"><g transform="matrix(1,0,0,1,0,0)"><svg viewBox="0 0 320 360" data-background-color="#2e024e" preserveAspectRatio="xMidYMid meet" height="2250" width="2000" xmlns="http://www.w3.org/2000/svg" xmlns:xlink="http://www.w3.org/1999/xlink"><g id="tight-bounds" transform="matrix(1,0,0,1,0,0)"><svg viewBox="0 0 320 360" height="360" width="320"><g><svg></svg></g><g><svg viewBox="0 0 320 360" height="360" width="320"><g><path d="M297.491 100.645c-12.426-21.51-112.674-79.355-137.491-79.355-24.817 0-125.028 57.845-137.491 79.355-11.591 20.02-11.591 138.726 0 158.746 12.463 21.474 112.674 79.319 137.491 79.319 24.817 0 125.064-57.845 137.491-79.355 11.591-20.02 11.591-138.69 0-158.71zM309.481 93.705c-14.461-24.998-119.469-86.295-149.481-86.295-30.012 0-135.02 61.297-149.481 86.295-14.025 24.199-14.025 148.391 0 172.59 14.461 24.998 119.469 86.295 149.481 86.295 30.012 0 135.02-61.297 149.481-86.259 14.025-24.235 14.025-148.427 0-172.626zM300.906 261.353c-12.753 22.055-115.472 81.317-140.906 81.318-25.434 0-128.153-59.298-140.906-81.354-11.881-20.529-11.881-142.178 0-162.707 12.753-22.019 115.472-81.281 140.906-81.281 25.434 0 128.153 59.298 140.906 81.318 11.881 20.529 11.881 142.178 0 162.706z" fill="#d579ff" fill-rule="nonzero" stroke="none" stroke-width="1" stroke-linecap="butt" stroke-linejoin="miter" stroke-miterlimit="10" stroke-dasharray="" stroke-dashoffset="0" font-family="none" font-weight="none" font-size="none" text-anchor="none" style="mix-blend-mode: normal" data-fill-palette-color="tertiary"></path></g><g transform="matrix(1,0,0,1,97.76595744680851,90)"><svg viewBox="0 0 124.46808510638297 180" height="180" width="124.46808510638297"><g><svg viewBox="0 0 124.46808510638297 180" height="180" width="124.46808510638297"><g><svg viewBox="0 0 124.46808510638297 180" height="180" width="124.46808510638297"><g id="textblocktransform"><svg viewBox="0 0 124.46808510638297 180" height="180" width="124.46808510638297" id="textblock"><g><svg viewBox="0 0 124.46808510638297 180" height="180" width="124.46808510638297"><g transform="matrix(1,0,0,1,0,0)"><svg width="124.46808510638297" viewBox="0.93 -32.42 25.39 36.72" height="180" data-palette-color="#2e024e"><path d="M25.29 4.3L23.44-3.22Q21.53-2.25 20.07-1.66 18.6-1.07 17.24-0.76 15.87-0.44 14.48-0.34 13.09-0.24 11.28-0.24L11.28-0.24Q8.89-0.24 6.98-0.81 5.08-1.37 3.74-2.51 2.39-3.66 1.66-5.44 0.93-7.23 0.93-9.77L0.93-9.77Q0.93-12.06 1.39-14.6 1.86-17.14 2.76-19.65 3.66-22.17 5-24.49 6.35-26.81 8.15-28.56 9.96-30.32 12.21-31.37 14.45-32.42 17.19-32.42L17.19-32.42Q18.21-32.42 19.63-32.2 21.04-31.98 22.34-31.47 23.63-30.96 24.51-30 25.39-29.05 25.39-27.59L25.39-27.59Q25.39-27.05 24.88-27.08 24.37-27.1 23.61-27.44 22.85-27.78 21.9-28.32 20.95-28.86 20.07-29.35 19.19-29.83 18.46-30.18 17.72-30.52 17.33-30.42L17.33-30.42Q14.99-30.42 13.09-29.52 11.18-28.61 9.64-27.1 8.11-25.59 6.96-23.61 5.81-21.63 5.05-19.48 4.3-17.33 3.93-15.21 3.56-13.09 3.56-11.18L3.56-11.18Q3.22-8.89 3.83-7.2 4.44-5.52 5.66-4.42 6.88-3.32 8.59-2.78 10.3-2.25 12.13-2.17 13.96-2.1 15.77-2.51 17.58-2.93 19.07-3.76 20.56-4.59 21.51-5.81 22.46-7.03 22.61-8.54L22.61-8.54Q22.61-10.11 22-11.18 21.39-12.26 20.39-12.99 19.38-13.72 18.09-14.16 16.8-14.6 15.45-14.84 14.11-15.09 12.77-15.19 11.43-15.28 10.3-15.43L10.3-15.43 10.3-16.31Q10.3-16.41 11.6-16.65 12.89-16.89 14.67-17.19 16.46-17.48 18.36-17.77 20.26-18.07 21.58-18.21L21.58-18.21Q21.58-18.21 21.83-18.24 22.07-18.26 22.36-18.26 22.66-18.26 22.95-18.26 23.24-18.26 23.44-18.26L23.44-18.26Q23.54-18.26 23.8-18.26 24.07-18.26 24.37-18.26 24.66-18.26 24.93-18.24 25.2-18.21 25.29-18.21L25.29-18.21Q25.34-17.53 25.42-16.04 25.49-14.55 25.59-12.72 25.68-10.89 25.78-8.84 25.88-6.79 25.98-4.96 26.07-3.13 26.15-1.66 26.22-0.2 26.27 0.54L26.27 0.54Q26.27 0.73 26.27 1.27 26.27 1.81 26.29 2.42 26.32 3.03 26.32 3.54 26.32 4.05 26.32 4.3L26.32 4.3 25.29 4.3ZM20.61-15.43L23.44-13.53 23.44-16.5Q22.71-16.5 21.92-16.14 21.14-15.77 20.61-15.43L20.61-15.43Z" opacity="1" transform="matrix(1,0,0,1,0,0)" fill="#2e024e" class="wordmark-text-0" data-fill-palette-color="quaternary" id="text-0"></path></svg></g></svg></g></svg></g></svg></g></svg></g></svg></g></svg></g><defs></defs></svg><rect width="320" height="360" fill="none" stroke="none" visibility="hidden"></rect></g></svg></g></svg>