<svg xmlns="http://www.w3.org/2000/svg" version="1.1" xmlns:xlink="http://www.w3.org/1999/xlink" xmlns:svgjs="http://svgjs.dev/svgjs" width="2000" height="2242" viewBox="0 0 2000 2242"><g transform="matrix(1,0,0,1,-3.1152519873138544,0)"><svg viewBox="0 0 321 360" data-background-color="#0b022d" preserveAspectRatio="xMidYMid meet" height="2242" width="2000" xmlns="http://www.w3.org/2000/svg" xmlns:xlink="http://www.w3.org/1999/xlink"><g id="tight-bounds" transform="matrix(1,0,0,1,0.5000020560361236,0)"><svg viewBox="0 0 320 360" height="360" width="320"><g><svg></svg></g><g><svg viewBox="0 0 320 360" height="360" width="320"><g><path transform="translate(-15.58119,4.24857) scale(3.51065,3.51065)" d="M51.5 85.2c-0.4-0.5-0.8-0.2-0.8-0.5-2.4 0.6-6.9-1-8.8-0.8 0.4-0.6-0.6-0.5-0.6-0.9-0.4 0.6-0.8 0-1.4 0.2-0.6-1.5-3-0.4-3.3-2.3-1.4 0-1.9-0.8-3.3-1.6 0.1-0.1 0.2-0.1 0.3-0.2-0.7-0.1-0.7-0.5-1.3-0.5l0.2-0.4c-1.1-0.2-1.5-1.9-3.1-2.5-0.5-0.1-1.6-1.8-2.2-2.2-0.3-0.2-0.8-0.2-0.1-0.3-0.1-0.1-0.1-0.3 0-0.4-0.7-0.2-0.8-0.8-1.7-1.1-0.1-0.3 0.2-0.5 0-0.7-0.2-0.1-0.5 0.1-0.7 0-0.1 1.8 1.9 2 2.5 3.5-0.2-0.2-0.5-0.8-0.7-0.4-0.1 0.3 0.8 1.4 0.8 0.8-0.3 0.2-0.4-0.3-0.2-0.4 0.3 0.5 0.9 0.4 0.9 0.8-0.3 0.3-0.7-0.3-0.6 0.2 0.9 0.5 0.8 1 1.3 1.7-0.4-0.5-0.5 0.4-0.9 0-0.1-1.5-1.8-1.2-1.8-2.7-0.2-0.5-0.4-0.1-0.7-0.3 0.4-0.4-1.2-1.8-1.2-1.3-0.5-0.6-0.2-0.8-0.3-1.2-0.4-0.1-0.1 0.4-0.4 0.1 0.4-0.7-0.5-1.6-1.1-2.3l0.4-0.2c-0.7-0.4-0.8-1.2-1.3-2.1-0.6 0.9 1.2 2.9 0.9 3.3 0 0.1 0.7 0.9 0.9 1.3 0.8 1.4 1.4 3.1 2.5 3.9-0.2-0.1-0.1-0.7 0.2-0.4 0 0.3-0.2 0.6-0.2 0.9 0.6 0.6 1.1 1.1 1.7 1.7-1.3-0.8-2.6-1.6-3.5-2.8 0.5-0.1 1 0.8 1.4 0.7-1-0.8-0.7-1.1-1.1-2.1-0.4-0.3 0.1 0.4-0.3 0.5-1.3-1.2-2.3-1.9-2.9-3 0.1-0.1 0.2-0.2 0.2-0.4-0.1-0.1-0.1-0.1-0.2-0.2 0.6 0.6 0.8 1.1 1.5 1.2-0.3-0.3 0-0.4-0.4-0.7-0.2-0.4-0.5 0.2-0.7-0.1 0.2-0.3 0-0.7 0-1-0.2 0-0.4 0-0.5-0.3-0.2-0.1-0.3 0-0.4 0.2-0.1-0.1-0.1-0.3-0.2-0.4v-0.1c-0.1-0.1-0.2-0.3-0.3-0.4-0.8-2.1-1.3-4.9-2.4-6.7 0.3-1.2-0.2-3.6-0.5-4.2 0.3-0.5 0.1-2.8-0.1-3.2-0.5 0.2 0.1 1.3-0.4 1.6-0.5-2.2 0.3-4.7 0.1-6.7 0.2 0 0.4 0 0.4-0.1-0.3-0.3 0.2-0.9 0.1-1.6 0.4-0.9-0.9 1.3-0.9 2.2-0.1 0.2-0.5 0-0.4 0.5 0 0.7 0.2 2.1-0.2 3.1-0.2 0-0.2-0.2-0.4-0.1-0.1 0.5-0.2 1.1-0.3 1.6-0.1-0.2-0.2-0.5-0.2-0.6-0.5-2.5 0-5.4-0.2-7.5 0.4 0 0.4-0.6 0.7-0.8-0.1 0.8-0.3 1.8 0.2 2 0.4-3.9 1.2-8.2 3-12.4 1.3-3.1 3.2-6.2 5.5-8.7 0.2 0.3-0.1 1 0 1.3 2-2.1 3.3-4.6 5.5-6 0.1 0.5-0.9 0.9-0.9 1.3 0.9-0.9 1.2-0.6 2.2-0.9 0.3-0.4-0.4 0-0.5-0.4 0.6-0.4 1-0.9 1.4-1.2 0 0.1-0.1 0.1-0.1 0.2 1.1-0.3 1.2-0.9 2-1.1-0.1-0.1-0.3-0.2-0.6-0.1 0.2-0.1 0.5-0.3 0.8-0.4-0.1 0-0.1 0.1-0.2 0.1 0.6-0.3 0.1 0.1 0.1 0.3 0.1 0 0.2-0.1 0.2-0.1-0.6 0.4-1 0.6-1.2 1.3 0.3-0.2 0.4 0 0.8-0.3 0.4-0.2-0.1-0.5 0.2-0.7 0.3 0.2 0.7 0.1 1 0.1 0-0.2 0.1-0.4 0.3-0.5 0.1-0.2 0-0.3-0.1-0.3 0.1-0.1 0.2-0.1 0.4-0.2 0 0 0.1 0 0.1 0.1 1.7-0.8 3.6-1.5 5.4-2.1 1.1-0.1 2.5-0.1 3.1-0.8-0.2 0-0.4 0.1-0.5 0 0.1 0 0.3-0.1 0.4-0.1 0.2 0.2 0.5 0 0.2 0.4 0.1 0 0.1 0 0.2-0.1 0 0.1 0 0.1 0.1 0.2 0.1 0 0.2-0.1 0.3-0.3 0.1 0 0.2 0 0.3-0.1l-0.1 0.1c0.8-0.2 1.5-0.1 2.6-0.3 0-0.1 0-0.2 0-0.3 0.2 0 0.3-0.1 0.5-0.1v0.1c0.4-0.2 0.8 0.2 0.8 0 0.1 0 0.1 0 0.2 0 0 0.2-0.1 0.3-0.1 0.4 0.5 0 0.8 0 1-0.3-0.1-0.1-0.2-0.1-0.3-0.1 0.2 0 0.4-0.1 0.6-0.2 0.3 0.1 0.4 0.2 0.4 0.6 0.5-0.9 2.1 0.2 2.8 0 0.3 0 0.2-0.4 0.4-0.6 0.1 0 0.2 0 0.3 0 0.5 0.4 1.2 0.8 2.1 0.9-0.8-0.2 0.1-0.3 0.2-0.4-0.2 0-0.2-0.1-0.2-0.2 0.3 0 0.6 0.1 0.9 0.1 0 0.2 0.1 0.3 0.3 0.3 0.2 0 0.2-0.1 0.2-0.3 0.3 0 0.5 0 0.8 0.1-0.1 0.4 0.5 0.5 0.7 0.8-0.8-0.2-1.7-0.5-2 0 3.2 0.7 6.7 1.7 10.1 3.4 0 0 0 0 0 0.1h0.1c0.6 0.3 1.2 0.6 1.8 0.9 0.4 0.2 0.7 0.4 1.1 0.7 0 0.1 0 0.2 0.2 0.2h0.1c0.4 0.3 0.8 0.5 1.2 0.8 0.4 0.6 0.8 1.4 1.5 1.2 1.5 2.3 3.1 3.2 4.4 5.6 0.1-0.4 0.4 0.9 0.9 1-0.8-0.1 0.5 0.5-0.3 0.4 0.7 0.7 0.9 1 1 1.8-0.2-0.4-0.3-0.5-0.4-0.1-0.1 0.6 0.7-0.1 1 0.5-0.6 0-0.4 0.4-0.3 0.9 0.3-0.3 0.2-0.6 0.5-0.5 0.4 0.4-0.2 0.5-0.1 0.8 0.3-0.4 0.4-0.2 0.8 0-0.5 0.1 0.3 0.8-0.3 0.5 0.4 0.5 0.5 0.8 0.3 1.3-0.4-0.6-0.1-1-0.7-0.9 1.2 1 0.6 3.3 2 3.5-0.9 0.2 0 0.6-0.5 0.7 0.6 0.2 0.3 1 1 1.2-0.1 0.5-0.3 0.8-0.4 1.3 0.3 0.4 0.4 1.2 0.9 1.3-0.3 0.3-0.1 1.1-0.4 1.4 0.4-0.2 0.6-0.2 0.9 0.2-0.5 0.4-0.1 0.8-0.4 0.9 0.9 2.3-0.2 7 0.3 8.8-0.6-0.3-0.4 0.7-0.8 0.7 0.7 0.3 0.1 0.8 0.4 1.3-1.4 0.8 0 3-1.9 3.5 0.2 1.4-0.6 2-1.2 3.5-0.1-0.1-0.1-0.2-0.2-0.3-0.1 0.7-0.5 0.8-0.3 1.4l-0.4-0.2c0 1.1-1.7 1.7-2.1 3.4-0.1 0.5-1.6 1.8-2 2.5-0.2 0.3-0.1 0.8-0.3 0.1-0.1 0.1-0.3 0.1-0.4 0.1-0.1 0.7-0.7 0.9-0.9 1.8-0.2 0.1-0.5-0.2-0.7 0.1 0 0.2 0.2 0.5 0.1 0.7 1.8-0.1 1.8-2.2 3.2-2.9-0.1 0.3-0.7 0.6-0.3 0.8 0.3 0 1.2-1 0.7-0.9 0.3 0.2-0.3 0.4-0.4 0.3 0.5-0.4 0.3-0.9 0.7-1 0.3 0.2-0.3 0.7 0.3 0.6 0.4-0.9 0.9-1 1.5-1.5-0.4 0.4 0.5 0.5 0.1 0.9-1.5 0.3-1 2-2.5 2.2-0.4 0.3-0.1 0.4-0.2 0.7-0.5-0.3-1.6 1.4-1.2 1.3-0.5 0.5-0.8 0.3-1.2 0.4-0.1 0.4 0.4 0.1 0.2 0.4-0.7-0.3-1.6 0.7-2.2 1.4l-0.3-0.3c-0.3 0.8-1.1 0.9-2 1.5 1 0.5 2.7-1.6 3.2-1.3 0.1 0 0.9-0.8 1.2-1.1 1.3-1 2.9-1.8 3.5-2.9-0.1 0.2-0.7 0.2-0.4-0.1 0.3-0.1 0.6 0.1 0.9 0.1 1.6-2.2 3.6-4 5.1-6.6 0.1-0.1 0.2-0.3 0.3-0.5-0.2 0.6-0.5 1.1-0.7 1.7-1.6 1.1-2.2 4.3-4.1 4.8 0.1 1.1-0.9 1.4-1.4 2.7-0.3 0.4-0.5-0.3-0.8 0.2 0.3 1.4-2.5 1.3-2.4 2.6-0.2 0.1-0.5 0.2-0.7 0.4h-0.1c-0.1 0.1-0.1 0.1-0.2 0.2-0.5 0.3-0.9 0.6-1.3 0.9-1.4 0.8-3.3 1.4-4.8 2.2v-0.1c-0.4 0.2-0.9 0.1-0.8 0.5-0.3 0.2-0.6 0.4-0.9 0.6-0.1 0-0.1 0-0.2 0 0 0-0.1-0.1-0.2-0.1-0.2 0-0.2 0-0.3 0.1-1.3 0.1-3 0.7-3.5 1.1-0.5-0.3-2.8 0.2-3.2 0.4 0.2 0.3 0.8 0 1.3 0-0.3 0.1-0.6 0.2-0.7 0.4-0.1 0-0.1 0-0.2 0-0.1-0.3-0.4 0-0.5-0.1h0.1c-0.1-0.4-0.4-0.6-0.9-0.5 0 0.2 0 0.3-0.1 0.5 0.2 0 0.8-0.3 0.8 0-0.1 0-0.1 0.1 0 0.1-0.2 0.2-0.5 0.2-0.7 0.3-0.4 0-0.9 0-1.3 0-0.1-0.1-0.2-0.1-0.4-0.2-0.1 0.1-0.3 0.1-0.4 0.2-0.6 0-1.3 0.1-1.8 0.2 0-0.2 0-0.4-0.2-0.4-0.3 0.4-0.9-0.1-1.6 0.1-0.7-0.2 0.4 0.3 1.4 0.5-0.1 0.1-0.2 0.2-0.5 0.3M37.5 86.6c-1.4-1.3-4.3-1.9-4.8-2.9-0.8-0.1-2-1.6-3-1.8 0.5 0 0.1-0.3 0-0.5-0.2 0.2-0.4 0.3-0.6 0.3 0-0.8-0.8-1.3-1.5-1.8 0.5 0.3 0.9 0.5 1.5 0.6 0-0.2 0-0.4 0.2-0.4 0.7 0.7 1.5 1.4 2.4 2.1 1.2 1.1 7.4 3.9 8.5 4.4 0 0-0.2 0.4-0.1 0.4 0.5 0.3 0.9-0.3 1 0.4-1.6 0.2-2.2-0.9-3.6-0.8M83.6 63.4v0.1 0c-0.1 0 0-0.1 0-0.1M43.2 17.1c-0.1 0.1-0.2 0.1-0.2 0.1 0-0.1 0.1-0.1 0.2-0.1M41.3 17.6c0 0.1 0 0.1 0 0 0 0.1 0 0.1 0 0 0 0.1 0 0 0 0M34.7 19.7v0c0.1-0.1 0.1-0.1 0.2-0.1-0.1 0-0.2 0.1-0.2 0.1M50.7 16.4c-0.2 0-0.3 0-0.4-0.1 0.1 0 0.2 0 0.3 0h0.1c0 0 0 0 0 0.1M52.5 16.6c-0.1-0.1-0.4-0.2-0.7-0.2 0-0.1 0.1-0.2 0.1-0.2 0.1 0 0.2 0 0.3 0 0 0 0.1 0 0.1 0.1 0 0 0 0 0-0.1 0.1 0 0.1 0 0.2 0 0.1 0.2 0.2 0.3 0 0.4M55.8 16.9c-0.5 0.1-0.8-0.1-1.3-0.4 0.3 0 0.7 0.1 1 0.2 0.1 0 0.2 0.1 0.3 0.2M91.4 31.1c-0.2 0.1-0.3 0.1-0.5-0.3-1.6-3.4-4.5-8.3-8.7-12.4-4.1-4.2-9.6-7.6-14.6-9.4 0.3 0.1 0.7 0.3 0.5 0.5-4.4-1.7-8.6-2.7-12.6-3.1-10.8-1.7-22.1 0.6-30.8 6.2 0.1 0.2 0.1 0.3-0.2 0.5-3.2 2-7.7 5.5-11.3 10.1-3.6 4.6-6.4 10.4-7.6 15.6 0.1-0.3 0.2-0.8 0.4-0.6-2.6 10.3-1.9 19.1 1.7 26.7 0.2-0.2-0.5-1.2 0.1-1.1 0.4 1.1 0.9 2.3 1.5 3.4 0.7 1.6 1.5 3.7 2.6 4.2-2.8-5.5-4.7-11.8-4.9-17.4 0.4 0.8 0.3 2.5 0.9 3.2 0.2-3.8-0.7-8.9 0.6-12.5-0.3 1.9-0.5 4.5-0.3 7.1 0 1.9 0.9 7.2 1.5 7.7-0.1-0.1-0.1-0.6 0-0.6 0.3 0.6-0.4 0.9 0.1 1 0-0.2 0.1-0.2 0.2-0.2 1 2.2 2.3 5.6 3.3 7.3 1.2 2.2 2.8 4.2 4.6 6 0 0.1 0.1 0.1 0.1 0.2 0.2 0.5 0.9 1.1 1.1 1.5 0.1 0.2-0.1 0.5 0 0.7 1.5 2.8 3.7 5.6 6.4 7.8 1.7 2 4.4 4.1 7.7 5.9 3.2 1.7 6.9 3.1 10.3 3.9 2.4 0.6 5.3 0.7 7.1 1.1 2.4 0.5 6.6-0.2 8.7-0.6 12.6-1.9 25.1-10.5 31.4-22.9 6.5-12.5 6.3-27.8 0.7-39.5" fill="#000000" fill-rule="nonzero" stroke="none" stroke-width="1" stroke-linecap="butt" stroke-linejoin="miter" stroke-miterlimit="10" stroke-dasharray="" stroke-dashoffset="0" font-family="none" font-weight="none" font-size="none" text-anchor="none" style="mix-blend-mode: normal" data-fill-palette-color="tertiary"></path></g><g transform="matrix(1,0,0,1,80,157.12547425883466)"><svg viewBox="0 0 160 45.7490514823307" height="45.7490514823307" width="160"><g><svg viewBox="0 0 233.3165510010944 66.71256814643066" height="45.7490514823307" width="160"><g transform="matrix(1,0,0,1,73.31655100109441,12.184143472753671)"><svg viewBox="0 0 160 42.34428120092331" height="42.34428120092331" width="160"><g id="textblocktransform"><svg viewBox="0 0 160 42.34428120092331" height="42.34428120092331" width="160" id="textblock"><g><svg viewBox="0 0 160 27.973969631236447" height="27.973969631236447" width="160"><g transform="matrix(1,0,0,1,0,0)"><svg width="160" viewBox="0.7 -39.6 230.49 40.300000000000004" height="27.973969631236447" data-palette-color="#f7fff7"><path d="M38.7-19.95L38.7-12.5 36.2-12.5 36.2-2.5Q34-1.25 29.78-0.28 25.55 0.7 20.65 0.7L20.65 0.7Q11.3 0.7 6-4.23 0.7-9.15 0.7-19.45L0.7-19.45Q0.7-30 5.98-34.8 11.25-39.6 21.05-39.6L21.05-39.6Q25.8-39.6 29.95-38.6 34.1-37.6 36.2-36.35L36.2-36.35 36.2-24.4 23.7-24.4 23.7-26.75Q23.7-28.85 22.83-29.78 21.95-30.7 20.05-30.7L20.05-30.7Q18.15-30.7 17.28-29.78 16.4-28.85 16.4-26.75L16.4-26.75 16.4-12.15Q16.4-10.05 17.28-9.13 18.15-8.2 20.05-8.2L20.05-8.2Q21.95-8.2 22.83-9.13 23.7-10.05 23.7-12.15L23.7-12.15 23.7-12.5 21-12.5 21-19.95 38.7-19.95ZM54.9 0.7Q47.8 0.7 43.8-3.03 39.8-6.75 39.8-13.9L39.8-13.9Q39.8-21.05 43.8-24.78 47.8-28.5 54.9-28.5L54.9-28.5Q62.1-28.5 66.05-24.73 70-20.95 70-13.9L70-13.9Q70-6.75 66-3.03 62 0.7 54.9 0.7L54.9 0.7ZM54.9-8.2Q56.35-8.2 57.07-8.97 57.8-9.75 57.8-11.4L57.8-11.4 57.8-16.4Q57.8-18.05 57.07-18.82 56.35-19.6 54.9-19.6L54.9-19.6Q53.45-19.6 52.72-18.82 52-18.05 52-16.4L52-16.4 52-11.4Q52-9.75 52.72-8.97 53.45-8.2 54.9-8.2L54.9-8.2ZM91.4 0L79.9 0 73.3-19.6 71.2-19.6 71.2-27.8 86.65-27.8 86.65-19.6 84.55-19.6 86.35-11.8 86.85-11.8 90.5-27.8 99.7-27.8 103.34-11.8 103.84-11.8 105.59-19.6 103.5-19.6 103.5-27.8 118-27.8 118-19.6 115.9-19.6 109.55 0 97.4 0 94.65-13.9 94.15-13.9 91.4 0ZM131.74 0.7Q126.44 0.7 123.77-1.88 121.09-4.45 121.09-10.55L121.09-10.55 121.09-19.6 118.89-19.6 118.89-27.8Q120.79-27.8 121.74-28.78 122.69-29.75 122.69-31.45L122.69-31.45 122.69-33.7 133.29-33.7 133.29-27.8 140.04-27.8 140.04-19.6 133.29-19.6 133.29-11.4Q133.29-9.75 134.02-8.97 134.74-8.2 136.19-8.2L136.19-8.2Q138.09-8.2 140.34-8.65L140.34-8.65 140.34-0.8Q138.94-0.25 136.57 0.23 134.19 0.7 131.74 0.7L131.74 0.7ZM172.94-8.2L175.14-8.2 175.14 0 159.34 0 159.34-8.2 161.44-8.2 161.44-16.4Q161.44-18.05 160.74-18.82 160.04-19.6 158.64-19.6L158.64-19.6Q155.64-19.6 155.64-16.4L155.64-16.4 155.64-8.2 157.74-8.2 157.74 0 141.94 0 141.94-8.2 144.14-8.2 144.14-30.7 141.94-30.7 141.94-38.9 155.64-38.9 155.64-23.9Q157.49-26.2 159.64-27.35 161.79-28.5 164.64-28.5L164.64-28.5Q168.79-28.5 170.87-25.9 172.94-23.3 172.94-18.75L172.94-18.75 172.94-8.2ZM191.64 0.7Q184.54 0.7 180.54-3.03 176.54-6.75 176.54-13.9L176.54-13.9Q176.54-21.05 180.54-24.78 184.54-28.5 191.64-28.5L191.64-28.5Q198.69-28.5 201.81-24.83 204.94-21.15 204.94-15.7L204.94-15.7 204.94-12.1 188.74-12.1 188.74-11.8Q188.74-9.95 189.84-9.08 190.94-8.2 193.49-8.2L193.49-8.2Q196.54-8.2 199.29-8.65 202.04-9.1 204.09-9.8L204.09-9.8 204.09-1.8Q202.34-0.85 198.96-0.08 195.59 0.7 191.64 0.7L191.64 0.7ZM188.74-17.6L194.54-17.6 194.54-18.2Q194.54-19.9 193.81-20.65 193.09-21.4 191.64-21.4L191.64-21.4Q190.19-21.4 189.46-20.63 188.74-19.85 188.74-18.2L188.74-18.2 188.74-17.6ZM227.79-28.5Q228.79-28.5 229.69-28.3 230.59-28.1 231.19-27.8L231.19-27.8 231.19-18.25Q229.14-19.1 226.79-19.1L226.79-19.1Q223.64-19.1 221.94-17.45 220.24-15.8 220.24-12.55L220.24-12.55 220.24-8.2 224.74-8.2 224.74 0 206.54 0 206.54-8.2 208.74-8.2 208.74-19.6 206.54-19.6 206.54-27.8 220.24-27.8 220.24-24.15Q221.64-26.25 223.44-27.38 225.24-28.5 227.79-28.5L227.79-28.5Z" opacity="1" transform="matrix(1,0,0,1,0,0)" fill="#000000" class="wordmark-text-0" data-fill-palette-color="primary" id="text-0"></path></svg></g></svg></g><g transform="matrix(1,0,0,1,0,34.57795248590022)"><svg viewBox="0 0 93.93599999999999 7.76632871502309" height="7.76632871502309" width="93.93599999999999"><g transform="matrix(1,0,0,1,0,0)"><svg width="93.93599999999999" viewBox="0.98 -38.57 539.16 44.58" height="7.76632871502309" data-palette-color="#f7fff7"><path d="M20.24-30.66L20.24 0 10.55 0 10.55-30.66 0.98-30.66 0.98-35.16 29.81-35.16 29.81-30.66 20.24-30.66ZM62.69-16.16L62.69-16.16Q62.69-13.31 62-10.21 61.3-7.1 60.06-4.13 58.81-1.15 57.08 1.48 55.34 4.1 53.27 6.01L53.27 6.01 50.17 4.32Q50.83 3.1 51.41 1.59 52 0.07 52.48-1.62 52.95-3.32 53.33-5.13 53.71-6.93 53.96-8.7 54.22-10.47 54.36-12.15 54.49-13.82 54.49-15.26L54.49-15.26Q54.49-16.21 54.42-17.3 54.34-18.38 54.11-19.47 53.88-20.56 53.49-21.56 53.1-22.56 52.45-23.32 51.8-24.07 50.89-24.54 49.97-25 48.73-25L48.73-25Q47.51-25 46.56-24.45 45.6-23.9 44.87-23.01 44.14-22.12 43.61-20.97 43.09-19.82 42.76-18.62 42.43-17.41 42.28-16.24 42.14-15.06 42.14-14.14L42.14-14.14 42.14 0 33.86 0 33.86-38.57 42.11-38.57 42.11-24.05Q43.7-26.37 46.01-27.62 48.31-28.88 51.12-28.88L51.12-28.88Q54.05-28.88 56.22-27.93 58.4-26.98 59.84-25.28 61.28-23.58 61.98-21.25 62.69-18.92 62.69-16.16ZM74.92-13.38L74.92-13.38Q76.44-13.04 77.95-12.84 79.46-12.65 81-12.65L81-12.65Q82.61-12.65 83.99-12.95 85.37-13.26 86.38-13.98 87.4-14.7 87.98-15.89 88.57-17.09 88.57-18.87L88.57-18.87Q88.57-20.31 88.18-21.51 87.79-22.71 87.02-23.56 86.25-24.41 85.13-24.89 84-25.37 82.51-25.37L82.51-25.37Q81.12-25.37 80.01-24.85 78.9-24.34 78.06-23.47 77.22-22.61 76.62-21.46 76.02-20.31 75.63-19.07 75.24-17.82 75.07-16.55 74.9-15.28 74.9-14.16L74.9-14.16Q74.9-13.96 74.9-13.77 74.9-13.57 74.92-13.38ZM95.26-18.95L95.26-18.95Q95.26-17.21 94.7-15.86 94.14-14.5 93.17-13.48 92.21-12.45 90.94-11.74 89.67-11.04 88.23-10.58 86.79-10.13 85.26-9.94 83.74-9.74 82.29-9.74L82.29-9.74Q80.46-9.74 78.68-10 76.9-10.25 75.17-10.82L75.17-10.82Q75.43-9.2 76.02-7.75 76.61-6.3 77.58-5.21 78.56-4.13 79.99-3.49 81.42-2.86 83.37-2.86L83.37-2.86Q84.66-2.86 85.83-3.25 87.01-3.64 87.98-4.35 88.96-5.05 89.7-6.03 90.45-7.01 90.91-8.2L90.91-8.2 94.48-6.88Q93.67-4.96 92.27-3.55 90.86-2.15 89.09-1.23 87.32-0.32 85.33 0.12 83.34 0.56 81.39 0.56L81.39 0.56Q78.17 0.56 75.43-0.52 72.7-1.61 70.72-3.56 68.75-5.52 67.62-8.23 66.5-10.94 66.5-14.16L66.5-14.16Q66.5-17.38 67.62-20.09 68.75-22.8 70.72-24.76 72.7-26.71 75.43-27.8 78.17-28.88 81.39-28.88L81.39-28.88Q82.95-28.88 84.59-28.66 86.23-28.44 87.76-27.97 89.3-27.49 90.67-26.73 92.04-25.98 93.05-24.87 94.06-23.75 94.66-22.29 95.26-20.83 95.26-18.95ZM124.38-25.71L124.38-25.71 119.74-18.02Q119.45-18.99 118.99-20.21 118.52-21.44 117.84-22.5 117.16-23.56 116.2-24.28 115.25-25 114.01-25L114.01-25Q112.86-25 112.02-24.41 111.17-23.83 110.59-22.89 110-21.95 109.62-20.76 109.25-19.58 109.04-18.37 108.83-17.16 108.76-16.05 108.68-14.94 108.68-14.14L108.68-14.14 108.68 0 100.41 0 100.41-28.2 103.58-28.2 106.93-21.63Q107.61-23.22 108.49-24.55 109.37-25.88 110.51-26.84 111.66-27.81 113.12-28.34 114.57-28.88 116.4-28.88L116.4-28.88Q117.35-28.88 118.52-28.72 119.69-28.56 120.82-28.19 121.94-27.81 122.89-27.2 123.85-26.59 124.38-25.71ZM133.88-13.38L133.88-13.38Q135.39-13.04 136.9-12.84 138.42-12.65 139.96-12.65L139.96-12.65Q141.57-12.65 142.95-12.95 144.33-13.26 145.34-13.98 146.35-14.7 146.94-15.89 147.52-17.09 147.52-18.87L147.52-18.87Q147.52-20.31 147.13-21.51 146.74-22.71 145.97-23.56 145.2-24.41 144.08-24.89 142.96-25.37 141.47-25.37L141.47-25.37Q140.08-25.37 138.97-24.85 137.86-24.34 137.01-23.47 136.17-22.61 135.57-21.46 134.98-20.31 134.58-19.07 134.19-17.82 134.02-16.55 133.85-15.28 133.85-14.16L133.85-14.16Q133.85-13.96 133.85-13.77 133.85-13.57 133.88-13.38ZM154.21-18.95L154.21-18.95Q154.21-17.21 153.65-15.86 153.09-14.5 152.13-13.48 151.16-12.45 149.89-11.74 148.62-11.04 147.18-10.58 145.74-10.13 144.22-9.94 142.69-9.74 141.25-9.74L141.25-9.74Q139.42-9.74 137.64-10 135.85-10.25 134.12-10.82L134.12-10.82Q134.39-9.2 134.98-7.75 135.56-6.3 136.54-5.21 137.51-4.13 138.94-3.49 140.37-2.86 142.32-2.86L142.32-2.86Q143.62-2.86 144.79-3.25 145.96-3.64 146.94-4.35 147.91-5.05 148.66-6.03 149.4-7.01 149.87-8.2L149.87-8.2 153.43-6.88Q152.63-4.96 151.22-3.55 149.82-2.15 148.05-1.23 146.28-0.32 144.29 0.12 142.3 0.56 140.35 0.56L140.35 0.56Q137.12 0.56 134.39-0.52 131.66-1.61 129.68-3.56 127.7-5.52 126.58-8.23 125.45-10.94 125.45-14.16L125.45-14.16Q125.45-17.38 126.58-20.09 127.7-22.8 129.68-24.76 131.66-26.71 134.39-27.8 137.12-28.88 140.35-28.88L140.35-28.88Q141.91-28.88 143.54-28.66 145.18-28.44 146.72-27.97 148.26-27.49 149.62-26.73 150.99-25.98 152-24.87 153.02-23.75 153.62-22.29 154.21-20.83 154.21-18.95ZM158.53-35.16L167.47-35.16 165.98-22.9 160.02-22.9 158.53-35.16ZM197.79-9.01L197.79-9.01Q197.79-7.15 197.25-5.71 196.71-4.27 195.79-3.21 194.86-2.15 193.59-1.43 192.32-0.71 190.87-0.27 189.41 0.17 187.83 0.37 186.24 0.56 184.68 0.56L184.68 0.56Q182.58 0.56 180.97 0.29 179.36 0.02 177.89-0.57 176.43-1.17 174.97-2.12 173.52-3.08 171.74-4.44L171.74-4.44 176.55-8.37Q177.21-7.13 178.29-6.12 179.38-5.1 180.55-4.37 181.72-3.64 182.82-3.25 183.92-2.86 184.6-2.86L184.6-2.86Q185.17-2.86 185.87-2.89 186.58-2.93 187.31-3.04 188.05-3.15 188.75-3.37 189.46-3.59 190.01-3.97 190.56-4.35 190.89-4.92 191.22-5.49 191.22-6.3L191.22-6.3Q191.22-7.13 190.79-7.75 190.37-8.37 189.68-8.84 189-9.3 188.12-9.62 187.24-9.94 186.35-10.18 185.46-10.42 184.63-10.61 183.8-10.79 183.19-10.96L183.19-10.96Q182.07-11.28 180.82-11.61 179.57-11.94 178.35-12.37 177.13-12.79 176.02-13.38 174.91-13.96 174.07-14.78 173.23-15.6 172.73-16.71 172.23-17.82 172.23-19.31L172.23-19.31Q172.23-22.05 173.31-23.89 174.4-25.73 176.18-26.84 177.96-27.95 180.23-28.42 182.5-28.88 184.85-28.88L184.85-28.88Q186.46-28.88 188.24-28.55 190.02-28.22 191.71-27.58 193.39-26.93 194.86-26 196.32-25.07 197.3-23.88L197.3-23.88 192.49-19.92Q191.95-21.39 191.09-22.44 190.22-23.49 189.21-24.16 188.19-24.83 187.13-25.15 186.07-25.46 185.17-25.46L185.17-25.46Q184.29-25.46 183.19-25.39 182.09-25.32 181.13-24.98 180.16-24.63 179.49-23.94 178.82-23.24 178.82-22.02L178.82-22.02Q178.82-21.14 179.22-20.52 179.62-19.9 180.28-19.45 180.94-18.99 181.78-18.69 182.63-18.38 183.51-18.15 184.38-17.92 185.21-17.75 186.04-17.58 186.7-17.38L186.7-17.38Q187.83-17.07 189.08-16.74 190.34-16.41 191.56-15.98 192.78-15.55 193.92-14.98 195.05-14.4 195.91-13.57 196.76-12.74 197.28-11.63 197.79-10.52 197.79-9.01ZM245.98-16.16L245.98-16.16Q245.98-13.31 245.28-10.21 244.58-7.1 243.34-4.13 242.09-1.15 240.36 1.48 238.63 4.1 236.55 6.01L236.55 6.01 233.45 4.32Q234.11 3.1 234.7 1.59 235.28 0.07 235.76-1.62 236.23-3.32 236.61-5.13 236.99-6.93 237.25-8.7 237.5-10.47 237.64-12.15 237.77-13.82 237.77-15.26L237.77-15.26Q237.77-16.21 237.7-17.3 237.63-18.38 237.39-19.47 237.16-20.56 236.77-21.56 236.38-22.56 235.73-23.32 235.09-24.07 234.17-24.54 233.26-25 232.01-25L232.01-25Q230.79-25 229.84-24.45 228.89-23.9 228.15-23.01 227.42-22.12 226.9-20.97 226.37-19.82 226.04-18.62 225.71-17.41 225.57-16.24 225.42-15.06 225.42-14.14L225.42-14.14 225.42 0 217.14 0 217.14-28.2 220.32-28.2 224.1-21.63Q224.78-23.27 225.81-24.61 226.84-25.95 228.13-26.9 229.42-27.86 231-28.37 232.57-28.88 234.4-28.88L234.4-28.88Q237.33-28.88 239.51-27.93 241.68-26.98 243.12-25.28 244.56-23.58 245.27-21.25 245.98-18.92 245.98-16.16ZM281.2-14.16L281.2-14.16Q281.2-11.96 280.62-10.03 280.03-8.11 278.99-6.47 277.96-4.83 276.49-3.53 275.03-2.22 273.28-1.32 271.54-0.42 269.55 0.07 267.56 0.56 265.46 0.56L265.46 0.56Q263.36 0.56 261.38 0.07 259.4-0.42 257.66-1.32 255.91-2.22 254.45-3.53 252.98-4.83 251.94-6.47 250.91-8.11 250.32-10.05 249.73-11.99 249.73-14.16L249.73-14.16Q249.73-16.33 250.32-18.27 250.91-20.21 251.94-21.85 252.98-23.49 254.45-24.79 255.91-26.1 257.66-27 259.4-27.91 261.38-28.39 263.36-28.88 265.46-28.88L265.46-28.88Q267.56-28.88 269.55-28.39 271.54-27.91 273.28-27 275.03-26.1 276.49-24.79 277.96-23.49 278.99-21.85 280.03-20.21 280.62-18.27 281.2-16.33 281.2-14.16ZM272.8-14.16L272.8-14.16Q272.8-15.33 272.67-16.64 272.54-17.94 272.22-19.2 271.9-20.46 271.35-21.62 270.8-22.78 270-23.65 269.19-24.51 268.07-25.04 266.95-25.56 265.46-25.56L265.46-25.56Q264.04-25.56 262.94-25.02 261.84-24.49 261.02-23.6 260.21-22.71 259.66-21.53 259.11-20.36 258.77-19.1 258.42-17.85 258.28-16.56 258.13-15.28 258.13-14.16L258.13-14.16Q258.13-13.04 258.28-11.76 258.42-10.47 258.77-9.2 259.11-7.93 259.66-6.77 260.21-5.62 261.02-4.72 261.84-3.83 262.94-3.3 264.04-2.76 265.46-2.76L265.46-2.76Q266.92-2.76 268.04-3.28 269.17-3.81 269.98-4.69 270.8-5.57 271.34-6.71 271.88-7.86 272.21-9.13 272.54-10.4 272.67-11.69 272.8-12.99 272.8-14.16ZM311.18-24.93L311.18 0 302.9 0 302.9-24.93 297.78-24.93 297.78-28.2 302.9-28.2 302.9-38.57 311.18-38.57 311.18-28.2 319.72-28.2 319.72-24.93 311.18-24.93ZM352.09-14.16L352.09-14.16Q352.09-11.96 351.51-10.03 350.92-8.11 349.88-6.47 348.85-4.83 347.38-3.53 345.92-2.22 344.17-1.32 342.43-0.42 340.44 0.07 338.45 0.56 336.35 0.56L336.35 0.56Q334.25 0.56 332.27 0.07 330.29-0.42 328.55-1.32 326.8-2.22 325.34-3.53 323.87-4.83 322.83-6.47 321.8-8.11 321.21-10.05 320.62-11.99 320.62-14.16L320.62-14.16Q320.62-16.33 321.21-18.27 321.8-20.21 322.83-21.85 323.87-23.49 325.34-24.79 326.8-26.1 328.55-27 330.29-27.91 332.27-28.39 334.25-28.88 336.35-28.88L336.35-28.88Q338.45-28.88 340.44-28.39 342.43-27.91 344.17-27 345.92-26.1 347.38-24.79 348.85-23.49 349.88-21.85 350.92-20.21 351.51-18.27 352.09-16.33 352.09-14.16ZM343.7-14.16L343.7-14.16Q343.7-15.33 343.56-16.64 343.43-17.94 343.11-19.2 342.79-20.46 342.24-21.62 341.69-22.78 340.89-23.65 340.08-24.51 338.96-25.04 337.84-25.56 336.35-25.56L336.35-25.56Q334.93-25.56 333.83-25.02 332.73-24.49 331.92-23.6 331.1-22.71 330.55-21.53 330-20.36 329.66-19.1 329.32-17.85 329.17-16.56 329.02-15.28 329.02-14.16L329.02-14.16Q329.02-13.04 329.17-11.76 329.32-10.47 329.66-9.2 330-7.93 330.55-6.77 331.1-5.62 331.92-4.72 332.73-3.83 333.83-3.3 334.93-2.76 336.35-2.76L336.35-2.76Q337.81-2.76 338.93-3.28 340.06-3.81 340.88-4.69 341.69-5.57 342.23-6.71 342.77-7.86 343.1-9.13 343.43-10.4 343.56-11.69 343.7-12.99 343.7-14.16ZM400.92-16.46L400.92-16.46Q400.92-13.55 400.24-10.4 399.55-7.25 398.32-4.26 397.09-1.27 395.35 1.39 393.62 4.05 391.5 6.01L391.5 6.01 388.4 4.32Q389.1 3.05 389.69 1.46 390.28-0.12 390.76-1.88 391.25-3.64 391.62-5.49 391.98-7.35 392.24-9.19 392.5-11.04 392.62-12.77 392.74-14.5 392.74-16.02L392.74-16.02Q392.74-16.87 392.69-17.87 392.64-18.87 392.48-19.87 392.33-20.87 392.01-21.79 391.69-22.71 391.14-23.43 390.59-24.15 389.77-24.57 388.96-25 387.81-25L387.81-25Q386.69-25 385.89-24.4 385.1-23.8 384.54-22.85 383.98-21.9 383.65-20.7 383.32-19.51 383.15-18.3 382.98-17.09 382.91-15.99 382.85-14.89 382.85-14.14L382.85-14.14 382.85 0 374.63 0 374.63-13.13Q374.63-13.99 374.65-15.2 374.67-16.41 374.59-17.72 374.5-19.04 374.27-20.35 374.04-21.66 373.54-22.68 373.04-23.71 372.18-24.35 371.33-25 370.04-25L370.04-25Q368.94-25 368.19-24.39 367.45-23.78 366.95-22.81 366.45-21.85 366.17-20.64 365.89-19.43 365.75-18.23 365.62-17.02 365.59-15.93 365.57-14.84 365.57-14.14L365.57-14.14 365.57 0 357.29 0 357.29-28.2 360.47-28.2 363.49-21.63Q364.52-25.05 366.73-26.97 368.94-28.88 372.6-28.88L372.6-28.88Q375.9-28.88 378.07-27.51 380.24-26.15 381.49-23.07L381.49-23.07Q382.19-24.41 383.06-25.49 383.93-26.56 384.99-27.32 386.05-28.08 387.35-28.48 388.64-28.88 390.2-28.88L390.2-28.88Q393.08-28.88 395.12-27.94 397.16-27 398.45-25.34 399.75-23.68 400.33-21.4 400.92-19.12 400.92-16.46ZM436.2-14.16L436.2-14.16Q436.2-11.96 435.61-10.03 435.02-8.11 433.99-6.47 432.95-4.83 431.48-3.53 430.02-2.22 428.27-1.32 426.53-0.42 424.54 0.07 422.55 0.56 420.45 0.56L420.45 0.56Q418.35 0.56 416.37 0.07 414.39-0.42 412.65-1.32 410.9-2.22 409.44-3.53 407.97-4.83 406.94-6.47 405.9-8.11 405.31-10.05 404.73-11.99 404.73-14.16L404.73-14.16Q404.73-16.33 405.31-18.27 405.9-20.21 406.94-21.85 407.97-23.49 409.44-24.79 410.9-26.1 412.65-27 414.39-27.91 416.37-28.39 418.35-28.88 420.45-28.88L420.45-28.88Q422.55-28.88 424.54-28.39 426.53-27.91 428.27-27 430.02-26.1 431.48-24.79 432.95-23.49 433.99-21.85 435.02-20.21 435.61-18.27 436.2-16.33 436.2-14.16ZM427.8-14.16L427.8-14.16Q427.8-15.33 427.66-16.64 427.53-17.94 427.21-19.2 426.89-20.46 426.34-21.62 425.8-22.78 424.99-23.65 424.18-24.51 423.06-25.04 421.94-25.56 420.45-25.56L420.45-25.56Q419.03-25.56 417.93-25.02 416.84-24.49 416.02-23.6 415.2-22.71 414.65-21.53 414.1-20.36 413.76-19.1 413.42-17.85 413.27-16.56 413.12-15.28 413.12-14.16L413.12-14.16Q413.12-13.04 413.27-11.76 413.42-10.47 413.76-9.2 414.1-7.93 414.65-6.77 415.2-5.62 416.02-4.72 416.84-3.83 417.93-3.3 419.03-2.76 420.45-2.76L420.45-2.76Q421.91-2.76 423.04-3.28 424.16-3.81 424.98-4.69 425.8-5.57 426.33-6.71 426.87-7.86 427.2-9.13 427.53-10.4 427.66-11.69 427.8-12.99 427.8-14.16ZM465.37-25.71L465.37-25.71 460.73-18.02Q460.44-18.99 459.97-20.21 459.51-21.44 458.82-22.5 458.14-23.56 457.19-24.28 456.24-25 454.99-25L454.99-25Q453.84-25 453-24.41 452.16-23.83 451.57-22.89 450.99-21.95 450.61-20.76 450.23-19.58 450.02-18.37 449.82-17.16 449.74-16.05 449.67-14.94 449.67-14.14L449.67-14.14 449.67 0 441.39 0 441.39-28.2 444.57-28.2 447.91-21.63Q448.6-23.22 449.47-24.55 450.35-25.88 451.5-26.84 452.65-27.81 454.1-28.34 455.55-28.88 457.38-28.88L457.38-28.88Q458.34-28.88 459.51-28.72 460.68-28.56 461.8-28.19 462.93-27.81 463.88-27.2 464.83-26.59 465.37-25.71ZM497.86-14.16L497.86-14.16Q497.86-11.96 497.27-10.03 496.69-8.11 495.65-6.47 494.61-4.83 493.15-3.53 491.68-2.22 489.94-1.32 488.19-0.42 486.2 0.07 484.21 0.56 482.11 0.56L482.11 0.56Q480.01 0.56 478.04 0.07 476.06-0.42 474.31-1.32 472.57-2.22 471.1-3.53 469.64-4.83 468.6-6.47 467.56-8.11 466.98-10.05 466.39-11.99 466.39-14.16L466.39-14.16Q466.39-16.33 466.98-18.27 467.56-20.21 468.6-21.85 469.64-23.49 471.1-24.79 472.57-26.1 474.31-27 476.06-27.91 478.04-28.39 480.01-28.88 482.11-28.88L482.11-28.88Q484.21-28.88 486.2-28.39 488.19-27.91 489.94-27 491.68-26.1 493.15-24.79 494.61-23.49 495.65-21.85 496.69-20.21 497.27-18.27 497.86-16.33 497.86-14.16ZM489.46-14.16L489.46-14.16Q489.46-15.33 489.33-16.64 489.19-17.94 488.88-19.2 488.56-20.46 488.01-21.62 487.46-22.78 486.65-23.65 485.85-24.51 484.73-25.04 483.6-25.56 482.11-25.56L482.11-25.56Q480.7-25.56 479.6-25.02 478.5-24.49 477.68-23.6 476.86-22.71 476.31-21.53 475.77-20.36 475.42-19.1 475.08-17.85 474.94-16.56 474.79-15.28 474.79-14.16L474.79-14.16Q474.79-13.04 474.94-11.76 475.08-10.47 475.42-9.2 475.77-7.93 476.31-6.77 476.86-5.62 477.68-4.72 478.5-3.83 479.6-3.3 480.7-2.76 482.11-2.76L482.11-2.76Q483.58-2.76 484.7-3.28 485.82-3.81 486.64-4.69 487.46-5.57 488-6.71 488.53-7.86 488.86-9.13 489.19-10.4 489.33-11.69 489.46-12.99 489.46-14.16ZM520-17.14L515.34 0 507.92 0 500.2-28.2 508.45-28.2 513.29-8.42 517.32-28.2 524.74-28.2 529.67-7.89 534.43-28.2 540.14-28.2 531.6 0 524.18 0 520-17.14Z" opacity="1" transform="matrix(1,0,0,1,0,0)" fill="#000000" class="slogan-text-1" data-fill-palette-color="secondary" id="text-1"></path></svg></g></svg></g></svg></g></svg></g><g><svg viewBox="0 0 66.71256814643064 66.71256814643066" height="66.71256814643066" width="66.71256814643064"><g><svg></svg></g><g id="icon-0"><svg viewBox="0 0 66.71256814643064 66.71256814643066" height="66.71256814643066" width="66.71256814643064"><g><path transform="scale(0.66713,0.66713)" d="M30 100c-16.569 0-30-13.431-30-30v-40c0-16.569 13.431-30 30-30h40c16.569 0 30 13.431 30 30v40c0 16.569-13.431 30-30 30z" fill="#000000" fill-rule="nonzero" stroke="none" stroke-width="1" stroke-linecap="butt" stroke-linejoin="miter" stroke-miterlimit="10" stroke-dasharray="" stroke-dashoffset="0" font-family="none" font-weight="none" font-size="none" text-anchor="none" style="mix-blend-mode: normal" data-fill-palette-color="accent"></path></g><g transform="matrix(1,0,0,1,15.010327832946892,13.342513629286131)"><svg viewBox="0 0 36.69191248053686 40.02754088785839" height="40.02754088785839" width="36.69191248053686"><g><svg xmlns="http://www.w3.org/2000/svg" viewBox="2 0 44 48" x="0" y="0" height="40.02754088785839" width="36.69191248053686" class="icon-dxe-0" data-fill-palette-color="quaternary" id="dxe-0"><path d="M33.34 26.83L36.17 24 33.34 21.17 34.76 19.76 37.59 22.59 39 24 37.59 25.41 34.76 28.24ZM13.24 19.76L10.41 22.59 9 24 10.41 25.41 13.24 28.24 14.66 26.83 11.83 24 14.66 21.17ZM46 12V36L24 48 2 36V12L24 0ZM44 13.19L24 2.28 4 13.19V34.81L24 45.72 44 34.81ZM20.89 32.45L28.89 16.45 27.11 15.55 19.11 31.55Z" fill="#ffffff" data-fill-palette-color="quaternary"></path></svg></g></svg></g></svg></g></svg></g></svg></g></svg></g></svg></g><defs></defs></svg><rect width="320" height="360" fill="none" stroke="none" visibility="hidden"></rect></g></svg></g></svg>